<svg xmlns="http://www.w3.org/2000/svg" viewBox="0 0 64 80" role="img" aria-label="Επιβατικό όχημα">
  <path d="M32 2C15.4 2 4 14.5 4 30.2 4 50.8 32 78 32 78s28-27.2 28-47.8C60 14.5 48.6 2 32 2z" fill="#3b6f8f" stroke="#fff" stroke-width="3"/>
  <g fill="none" stroke="#fff" stroke-width="3.2" stroke-linecap="round" stroke-linejoin="round">
    <path d="M18 36h28l-3.5-9.5a5 5 0 0 0-4.7-3.2H26.2a5 5 0 0 0-4.7 3.2L18 36z"/>
    <path d="M15.5 36h33v10h-33z"/>
    <circle cx="21" cy="47" r="3" fill="#fff" stroke="none"/><circle cx="43" cy="47" r="3" fill="#fff" stroke="none"/>
    <path d="M20 30h24M16 40h4M44 40h4"/>
  </g>
</svg>
