<svg xmlns="http://www.w3.org/2000/svg" viewBox="0 0 64 80" role="img" aria-label="Υδροφόρα">
  <path d="M32 2C15.4 2 4 14.5 4 30.2 4 50.8 32 78 32 78s28-27.2 28-47.8C60 14.5 48.6 2 32 2z" fill="#2474a6" stroke="#fff" stroke-width="3"/>
  <g fill="none" stroke="#fff" stroke-width="3" stroke-linecap="round" stroke-linejoin="round">
    <rect x="13" y="28" width="25" height="18" rx="8"/><path d="M38 34h10l4 7v5H38z"/><path d="M20 31v12M31 31v12"/>
    <circle cx="21" cy="48" r="4" fill="#fff" stroke="none"/><circle cx="44" cy="48" r="4" fill="#fff" stroke="none"/>
    <path d="M25.5 35c-3 4-3 6 0 8 3-2 3-4 0-8z" fill="#fff" stroke="none"/>
  </g>
</svg>
